<?xml version="1.0" standalone="no"?><!DOCTYPE svg PUBLIC "-//W3C//DTD SVG 1.1//EN" "http://www.w3.org/Graphics/SVG/1.1/DTD/svg11.dtd"><svg class="icon" width="200px" height="200.00px" viewBox="0 0 1024 1024" version="1.1" xmlns="http://www.w3.org/2000/svg"><path d="M512 71.274667l373.333333 176.362666v302.698667c0 162.048-133.034667 332.224-344.682666 392.469333l-8.853334 2.453334-19.797333 5.12-20.032-5.184C282.026667 889.045333 146.730667 724.096 138.986667 563.029333l-0.256-6.890666-0.064-308.48L512 71.253333z m-0.021333 70.784l-309.333334 146.112 0.085334 267.136c3.285333 129.6 112.789333 269.354667 288.341333 323.072l8.533333 2.538666 8.661334 2.389334 3.690666 0.96 3.541334-0.896c183.104-48.981333 298.581333-189.141333 305.493333-320.554667l0.256-6.250667 0.085333-6.229333V288.170667L511.978667 142.058667z m104.704 237.141333l45.248 45.248-203.648 203.648-143.296-143.296 45.248-45.248 98.026666 98.048 158.421334-158.4z" fill="#1677FF" /></svg>