<?xml version="1.0" standalone="no"?><!DOCTYPE svg PUBLIC "-//W3C//DTD SVG 1.1//EN" "http://www.w3.org/Graphics/SVG/1.1/DTD/svg11.dtd"><svg class="icon" width="200px" height="200.00px" viewBox="0 0 1024 1024" version="1.1" xmlns="http://www.w3.org/2000/svg"><path d="M512 96c229.76 0 416 186.24 416 416S741.76 928 512 928 96 741.76 96 512 282.24 96 512 96z m0 64C317.589333 160 160 317.589333 160 512S317.589333 864 512 864 864 706.410667 864 512 706.410667 160 512 160z m10.666667 170.666667c51.882667 0 100.522667 20.736 136.234666 56.704l4.586667 4.778666-46.933333 43.52a128 128 0 1 0-4.096 178.24l4.096-4.245333 46.933333 43.52A192 192 0 1 1 522.666667 330.666667z" fill="#1677FF" /></svg>