<?xml version="1.0" standalone="no"?><!DOCTYPE svg PUBLIC "-//W3C//DTD SVG 1.1//EN" "http://www.w3.org/Graphics/SVG/1.1/DTD/svg11.dtd"><svg class="icon" width="200px" height="200.00px" viewBox="0 0 1024 1024" version="1.1" xmlns="http://www.w3.org/2000/svg"><path d="M874.666667 553.877333V746.666667h-192v-128.021334h-64v258.986667h-64V554.666667h192v127.978666h64v-128.768h64zM469.333333 554.666667v320H149.333333V554.666667h320z m405.333334 256v64h-192v-64h192z m-469.333334-192h-192v192h192v-192z m-64 64v64h-64v-64h64z m128-533.333334v320H149.333333V149.333333h320z m405.333334 0v320H554.666667V149.333333h320z m-469.333334 64h-192v192h192v-192z m405.333334 0h-192v192h192v-192z m-469.333334 64v64h-64v-64h64z m405.333334 0v64h-64v-64h64z" fill="#1677FF" /></svg>