<?xml version="1.0" encoding="UTF-8"?>
<svg width="14px" height="12px" viewBox="0 0 14 12" version="1.1" xmlns="http://www.w3.org/2000/svg" xmlns:xlink="http://www.w3.org/1999/xlink">
    <title>路径</title>
    <g id="GUI" stroke="none" stroke-width="1" fill="none" fill-rule="evenodd">
        <g id="应用市场1备份" transform="translate(-339.000000, -437.000000)" stroke="#FF6666">
            <path d="M348.899775,437.480437 C349.824854,437.505576 350.729523,437.910654 351.422414,438.703927 C352.093919,439.472713 352.448944,440.464993 352.494889,441.470646 C352.541226,442.484866 352.273536,443.515785 351.685165,444.350062 C349.789087,446.649427 347.038477,448.502568 346.00124,448.500002 C344.968106,448.49744 341.856912,446.37822 340.600109,444.712907 C340.445024,444.507413 340.315433,444.33586 340.211346,444.198114 C339.678749,443.360054 339.447364,442.353905 339.511675,441.371032 C339.575288,440.398819 339.928599,439.446934 340.577586,438.703927 C341.251773,437.932069 342.12654,437.526587 343.011753,437.501269 C343.899477,437.475879 344.790794,437.833076 345.491722,438.560357 C345.617755,438.691129 345.731604,438.827611 345.833351,438.968552 C345.944202,438.832153 346.065512,438.70063 346.197088,438.574957 C346.9773,437.829746 347.946466,437.45453 348.899775,437.480437 Z" id="路径"></path>
        </g>
    </g>
</svg>