<?xml version="1.0" standalone="no"?><!DOCTYPE svg PUBLIC "-//W3C//DTD SVG 1.1//EN" "http://www.w3.org/Graphics/SVG/1.1/DTD/svg11.dtd"><svg class="icon" width="200px" height="200.00px" viewBox="0 0 1024 1024" version="1.1" xmlns="http://www.w3.org/2000/svg"><path d="M533.333333 62.186667l373.333334 176.362666v302.698667c0 162.048-133.034667 332.224-344.682667 392.469333l-8.853333 2.453334-19.797334 5.12-20.032-5.184C303.36 879.957333 168.064 715.008 160.32 553.941333l-0.256-6.890666-0.064-308.48L533.333333 62.165333z m-0.021333 70.784l-309.333333 146.112 0.085333 267.136c3.285333 129.6 112.789333 269.333333 288.341333 323.072l8.533334 2.538666 8.661333 2.389334 3.690667 0.96 3.541333-0.896c183.104-48.981333 298.581333-189.141333 305.493333-320.554667l0.256-6.250667 0.085334-6.229333V279.082667L533.312 132.970667zM498.410667 326.4a138.922667 138.922667 0 0 1 116.16 215.146667l83.242666 83.242666-45.269333 45.248-84.48-84.48A138.922667 138.922667 0 1 1 498.410667 326.4z m0 64a74.922667 74.922667 0 1 0 0 149.845333 74.922667 74.922667 0 0 0 0-149.845333z" fill="#1677FF" /></svg>