<?xml version="1.0" standalone="no"?><!DOCTYPE svg PUBLIC "-//W3C//DTD SVG 1.1//EN" "http://www.w3.org/Graphics/SVG/1.1/DTD/svg11.dtd"><svg t="1687063119561" class="icon" viewBox="0 0 1024 1024" version="1.1" xmlns="http://www.w3.org/2000/svg" p-id="5599" xmlns:xlink="http://www.w3.org/1999/xlink" width="200" height="200"><path d="M512 0C229.236364 0 0 229.236364 0 512s229.236364 512 512 512 512-229.236364 512-512S794.763636 0 512 0z" fill="#FF4958" p-id="5600"></path><path d="M510.789818 169.146182c37.934545 0 61.393455 36.910545 58.042182 70.190545l-42.402909 386.932364h-33.512727l-37.888-386.932364c-2.280727-32.395636 20.014545-70.190545 55.761454-70.190545zM512 797.696c-31.650909 0-57.157818-25.506909-57.157818-57.111273 0-31.650909 25.506909-57.157818 57.157818-57.157818 31.650909 0 57.157818 25.506909 57.157818 57.157818 0 31.650909-25.506909 57.111273-57.157818 57.111273z" fill="#FFFFFF" p-id="5601"></path></svg>