<?xml version="1.0" standalone="no"?><!DOCTYPE svg PUBLIC "-//W3C//DTD SVG 1.1//EN" "http://www.w3.org/Graphics/SVG/1.1/DTD/svg11.dtd"><svg class="icon" width="200px" height="200.00px" viewBox="0 0 1024 1024" version="1.1" xmlns="http://www.w3.org/2000/svg"><path d="M202.666667 652.544V821.333333h158.72v64H138.666667V652.544h64z m682.666666 0V885.333333H662.570667v-64h158.741333l0.021333-168.789333h64zM512 288a138.666667 138.666667 0 0 1 96.832 237.930667 202.602667 202.602667 0 0 1 105.749333 172.309333l0.085334 5.76h-64a138.666667 138.666667 0 0 0-277.248-4.970667L373.333333 704h-64a202.624 202.624 0 0 1 105.834667-178.090667A138.666667 138.666667 0 0 1 512 288z m0 64a74.666667 74.666667 0 1 0 0 149.333333 74.666667 74.666667 0 0 0 0-149.333333z m-150.592-213.333333v64H202.666667v148.693333h-64V138.666667h222.741333z m523.925333 0v212.693333h-64l-0.021333-148.693333h-158.72v-64H885.333333z" fill="#1677FF" /></svg>