<?xml version="1.0" standalone="no"?><!DOCTYPE svg PUBLIC "-//W3C//DTD SVG 1.1//EN" "http://www.w3.org/Graphics/SVG/1.1/DTD/svg11.dtd"><svg class="icon" width="200px" height="200.00px" viewBox="0 0 1024 1024" version="1.1" xmlns="http://www.w3.org/2000/svg"><path d="M949.333333 160v704h-874.666666v-704h874.666666z m-64 64h-746.666666v576h746.666666v-576z m-512.042666 142.229333a105.365333 105.365333 0 0 1 82.154666 171.328 149.162667 149.162667 0 0 1 67.136 119.616l0.085334 5.141334h-64a85.376 85.376 0 0 0-170.624-4.266667l-0.106667 4.266667h-64a149.226667 149.226667 0 0 1 67.221333-124.778667 105.365333 105.365333 0 0 1 82.133334-171.306667z m435.498666 197.717334v64h-202.133333v-64h202.133333z m-435.498666-133.717334a41.365333 41.365333 0 1 0 0 82.709334 41.365333 41.365333 0 0 0 0-82.709334z m360.32-34.176v64h-126.954667v-64h126.933333z" fill="#1677FF" /></svg>