<?xml version="1.0" standalone="no"?><!DOCTYPE svg PUBLIC "-//W3C//DTD SVG 1.1//EN" "http://www.w3.org/Graphics/SVG/1.1/DTD/svg11.dtd"><svg class="icon" width="200px" height="200.00px" viewBox="0 0 1024 1024" version="1.1" xmlns="http://www.w3.org/2000/svg"><path d="M532.757333 108.650667v362.965333h362.666667v32c0 217.962667-176.704 394.666667-394.666667 394.666667s-394.666667-176.704-394.666666-394.666667c0-212.778667 168.554667-386.688 380.330666-394.410667l7.146667-0.192 39.189333-0.362666z m-64 65.813333l-8.277333 0.917333c-163.818667 19.882667-290.389333 159.466667-290.389333 328.234667 0 182.613333 148.053333 330.666667 330.666666 330.666667 168.96 0 308.330667-126.72 328.234667-290.346667l0.874667-8.32H468.757333V174.464z m160-86.954667c154.026667 0 280.213333 121.130667 287.509334 274.282667l0.256 6.677333 0.490666 38.890667H596.736V87.509333h32z m31.978667 66.282667v189.568h189.568l-0.490667-3.456a224.064 224.064 0 0 0-179.2-184.490667l-6.165333-1.066666-3.712-0.554667z" fill="#1677FF" /></svg>