<?xml version="1.0" standalone="no"?><!DOCTYPE svg PUBLIC "-//W3C//DTD SVG 1.1//EN" "http://www.w3.org/Graphics/SVG/1.1/DTD/svg11.dtd"><svg class="icon" width="200px" height="200.00px" viewBox="0 0 1024 1024" version="1.1" xmlns="http://www.w3.org/2000/svg"><path d="M906.666667 160v704h-768v-704h768z m-167.061334 366.4l-216.405333 180.096-140.565333-110.890667L202.666667 741.141333V800h640v-188.117333l-103.061334-85.482667zM842.666667 224h-640v434.837333l179.477333-145.130666 139.968 110.421333 217.450667-180.906667 103.104 85.504V224z m-437.333334 42.666667a96 96 0 1 1 0 192 96 96 0 0 1 0-192z m0 64a32 32 0 1 0 0 64 32 32 0 0 0 0-64z" fill="#1677FF" /></svg>