<?xml version="1.0" standalone="no"?><!DOCTYPE svg PUBLIC "-//W3C//DTD SVG 1.1//EN" "http://www.w3.org/Graphics/SVG/1.1/DTD/svg11.dtd"><svg class="icon" width="200px" height="200.00px" viewBox="0 0 1024 1024" version="1.1" xmlns="http://www.w3.org/2000/svg"><path d="M371.776 85.333333v117.397334h98.133333V85.333333h64v117.397334h98.133334V85.333333h64v117.397334h119.338666v110.933333h115.989334v64H815.36v98.133333h115.989333v64H815.36v98.133334h115.989333v64H815.36v112h-119.338667v117.44h-64v-117.44h-98.133333v117.44h-64v-117.44h-98.133333v117.44h-64v-117.44H204.181333v-112H85.333333v-64h118.848v-98.133334H85.333333v-64h118.848v-98.133333H85.333333v-64h118.848v-110.933333h103.594667V85.333333h64z m379.605333 181.397334h-483.2v483.2h483.2v-483.2z m-98.133333 98.133333v286.933333h-286.933333v-286.933333h286.933333z m-64 64h-158.933333v158.933333h158.933333v-158.933333z" fill="#1677FF" /></svg>