<?xml version="1.0" standalone="no"?><!DOCTYPE svg PUBLIC "-//W3C//DTD SVG 1.1//EN" "http://www.w3.org/Graphics/SVG/1.1/DTD/svg11.dtd"><svg class="icon" width="200px" height="200.00px" viewBox="0 0 1024 1024" version="1.1" xmlns="http://www.w3.org/2000/svg"><path d="M865.962667 853.333333v64H138.666667v-64h727.296zM501.333333 96c102.4 0 174.976 57.898667 188.245334 156.010667 7.552 56.042667-11.050667 110.592-57.642667 165.76-17.28 20.48-25.130667 53.568-20.16 81.002666 5.845333 32.149333 26.026667 51.328 50.922667 52.928l3.413333 0.106667h124.970667L852.48 778.666667H150.186667l61.44-226.858667h124.885333c26.474667 0 48.256-19.413333 54.357333-53.034667 4.970667-27.434667-2.88-60.522667-20.117333-80.96-46.613333-55.210667-65.237333-109.76-57.664-165.802666 13.226667-98.112 85.845333-156.010667 188.224-156.010667z m0 64c-71.509333 0-116.010667 35.498667-124.8 100.586667-4.992 36.970667 7.594667 73.834667 43.136 115.946666 30.016 35.584 42.453333 88.064 34.176 133.653334-11.093333 61.418667-56.277333 103.189333-112.341333 105.514666l-4.970667 0.106667h-75.946666L233.792 714.666667H768.853333l-26.773333-98.858667h-75.968c-54.933333 0-100.309333-37.610667-114.986667-94.826667l-1.28-5.418666-1.066666-5.376c-8.256-45.610667 4.202667-98.090667 34.218666-133.674667 35.541333-42.090667 48.128-78.954667 43.136-115.925333-8.810667-65.088-53.290667-100.586667-124.821333-100.586667z" fill="#1677FF" /></svg>