<svg id="图层_1" data-name="图层 1" xmlns="http://www.w3.org/2000/svg" xmlns:xlink="http://www.w3.org/1999/xlink" viewBox="0 0 296 88"><defs><style>.cls-1{fill:#fff;}.cls-2,.cls-3,.cls-4{fill-rule:evenodd;}.cls-2{fill:url(#未命名的渐变_12);}.cls-3{fill:url(#未命名的渐变_12-2);}.cls-4{fill:url(#未命名的渐变_12-3);}</style><linearGradient id="未命名的渐变_12" x1="64.45" y1="36.29" x2="49.89" y2="61.06" gradientUnits="userSpaceOnUse"><stop offset="0" stop-color="#1a8cff"/><stop offset="1" stop-color="#0cc"/></linearGradient><linearGradient id="未命名的渐变_12-2" x1="42.84" y1="68.64" x2="28.25" y2="38.67" xlink:href="#未命名的渐变_12"/><linearGradient id="未命名的渐变_12-3" x1="22.16" y1="30.79" x2="56.98" y2="29.83" xlink:href="#未命名的渐变_12"/></defs><rect class="cls-1" x="8" y="8" width="72" height="72" rx="8"/><path class="cls-2" d="M75.93,41.18c-.71-11.74-9.12-22.09-19.61-26.74l-.22-.1a32.78,32.78,0,0,1,8.17,19.17C65.23,46.09,58.6,62.1,44,62.1a18.56,18.56,0,0,1-3-.25,31.09,31.09,0,0,0,3.7,2,29.65,29.65,0,0,0,12.13,2.55c3.15,0,6.6,0,9.61-1.28,3.38-1.41,5.09-4.34,6.57-7.54A33.69,33.69,0,0,0,75.93,41.18Z"/><path class="cls-3" d="M62.69,70a29.55,29.55,0,0,0,2.4-1.91,32.49,32.49,0,0,1-8.26,1.06,37.89,37.89,0,0,1-15.88-4A31.29,31.29,0,0,1,31.72,58c-6.72-7.15-8-18.47-1.2-26.08a30.06,30.06,0,0,0-4.33,2.65A31,31,0,0,0,17.2,45c-1.53,2.89-3.09,6.17-2.94,9.52s2.59,6.78,4.59,9.31A32.63,32.63,0,0,0,46,76,32.47,32.47,0,0,0,62.69,70Z"/><path class="cls-4" d="M27.08,16.82A32.71,32.71,0,0,0,12.61,38a31.45,31.45,0,0,0-.19,11.28,33.22,33.22,0,0,1,26.78-23,22.3,22.3,0,0,1,11.9,1.09A18.52,18.52,0,0,1,61.45,39.12c-.27-.92.15-2.55.13-3.55a29.75,29.75,0,0,0-.38-4,30.9,30.9,0,0,0-2.29-7.7c-2-4.58-5.36-11-10.92-11.65a33.54,33.54,0,0,0-19.72,3.87"/><path class="cls-1" d="M116.23,8.09,118.48,13h17.28v3.16H116.83L105.89,28.47h11.49l8-9.2,2.39,2-22.1,25.51h22a2.66,2.66,0,0,0,2.66-2.66V36.72h3.13v7.42a5.8,5.8,0,0,1-5.79,5.77h-24.4a2,2,0,0,1-1.51-3.31l13-15H103.27a2,2,0,0,1-1.49-3.33L112.6,16.11H96.24V13h18.7l-1.61-3.53Z"/><path class="cls-1" d="M153.25,38.78l-5.13,10.81-2.74-1.39,5.08-10.81ZM145.38,8.09h7.5v3.12h-7.5Zm0,16.08h7.5v3.11h-7.5Zm19.43-11.09,2.62,5.78h10.25l2.66-7.38H159.16V8.37h22.75A2,2,0,0,1,183.79,11L181,18.86a5.86,5.86,0,0,1,5.56,5.77V43.82a5.8,5.8,0,0,1-5.79,5.77h-1.89V46.47h1.89a2.63,2.63,0,0,0,2.66-2.65V41.89H173.5V49.5h-3.13V41.89h-9.83l0,7.74h-3.12l-.05-25a5.82,5.82,0,0,1,5.79-5.77h.74l-2-4.49Zm-4.27,11.55v4.3h9.83V22H163.2A2.63,2.63,0,0,0,160.54,24.63Zm0,14.15h9.83V32.05h-9.83ZM173.5,22v7h9.92v-4.3A2.63,2.63,0,0,0,180.76,22Zm0,16.81h9.92V32.05H173.5Z"/><path class="cls-1" d="M196.26,18.37h9.23a11.85,11.85,0,0,0,.23-2.29v-2h-7.67a1,1,0,0,1-.93-1.36L199,8.11l3,1.1L201.17,11H217.3v3.11h-8.45v2a12.28,12.28,0,0,1-.19,2.29h9.24v3.12H211l7.17,6-2,2.34-8.82-7.37c-1.89,3.48-5.47,6.09-10.57,7.83l-1-2.93c4-1.42,6.89-3.39,8.5-5.91h-8Zm7.21,31.52A4.91,4.91,0,0,1,198.6,45v-8.7a4.91,4.91,0,0,1,4.87-4.9h26.24a4.9,4.9,0,0,1,4.87,4.9V45a4.9,4.9,0,0,1-4.87,4.91ZM201.72,39h29.74V36.28a1.75,1.75,0,0,0-1.75-1.78H203.47a1.75,1.75,0,0,0-1.75,1.78Zm28,7.74A1.75,1.75,0,0,0,231.46,45V42.14H201.72V45a1.76,1.76,0,0,0,1.75,1.79Zm-5-17.45a4.92,4.92,0,0,1-4.92-4.9v-10a5,5,0,0,1,4.92-5h7.58a5,5,0,0,1,5,5v10a5,5,0,0,1-5,4.9Zm7.58-3.11a1.81,1.81,0,0,0,1.84-1.79v-10a1.84,1.84,0,0,0-1.84-1.83h-7.58A1.8,1.8,0,0,0,223,14.39v10a1.76,1.76,0,0,0,1.79,1.79Z"/><path class="cls-1" d="M266.88,11.16v4.53a5.8,5.8,0,0,1-5.79,5.78h-12a2,2,0,0,1-1.93-2.54l3-10.79,3,.82-2.62,9.39H261.1a2.66,2.66,0,0,0,2.66-2.66V11.16Zm-20.35,38.7V28.66a4.88,4.88,0,0,1,4.91-4.9h10.48a4.91,4.91,0,0,1,4.92,4.9v21.2h-3.13V44H249.65v5.91Zm3.12-17.95h14.06V28.66a1.79,1.79,0,0,0-1.79-1.79H251.44a1.79,1.79,0,0,0-1.79,1.79Zm0,8.93h14.06V35H249.65Zm37.82-27.53-14.06,3.8v5.78a2.67,2.67,0,0,0,2.67,2.65h11.26v3.12H276.08a5.82,5.82,0,0,1-5.79-5.77V9h3.12v4.9l13.24-3.57Zm0,22.17-14.06,3.8v4.58a2.67,2.67,0,0,0,2.67,2.66h11.26v3.11H276.08a5.82,5.82,0,0,1-5.79-5.77V29.94h3.12V36l13.24-3.62Z"/><path class="cls-1" d="M105.62,74.35V64.23l-3.48,5.37h-.92l-3.47-5.38c0,3.38,0,6.75,0,10.13H96.55l0-12.6h1.1l4,6.32,4.09-6.32h1.08l0,12.6Z"/><path class="cls-1" d="M108.87,65.43a17.4,17.4,0,0,1,2.76-.29c1.92,0,3.45.6,3.42,2.72s0,4.52,0,6.79h-1.22v-.38a7.31,7.31,0,0,1-2.65.6,2.72,2.72,0,0,1-1.69-.49,2.86,2.86,0,0,1-1.16-2.32,3.07,3.07,0,0,1,2.11-3,13.94,13.94,0,0,1,2.52-.23c.29,0,.6,0,.88,0v-1c0-1.17-1-1.49-2.19-1.49a17.33,17.33,0,0,0-2.56.25Zm4.94,7.49V70.11h-.87a10.09,10.09,0,0,0-2.25.21,1.74,1.74,0,0,0-1.15,1.75,1.79,1.79,0,0,0,.65,1.37,1.69,1.69,0,0,0,1,.21A6.08,6.08,0,0,0,113.81,72.92Z"/><path class="cls-1" d="M120.74,71.37a6.69,6.69,0,0,1-2.06-.32c-.29.14-.48.34-.48.54s.56.68,1.85,1a16.84,16.84,0,0,1,2.49.67,2.69,2.69,0,0,1,1.94,2.38,3,3,0,0,1-3.08,2.64h0a5.72,5.72,0,0,1-.59,0c-2.89,0-4.09-1.48-4.09-3a3.21,3.21,0,0,1,1-2.3,1.71,1.71,0,0,1-.81-1.37,1.77,1.77,0,0,1,.6-1.23,2.93,2.93,0,0,1-.69-1.94,2.6,2.6,0,0,1,1.5-2.5,6.59,6.59,0,0,1,2.1-.45v0l4.14,0v1.23h-.75a3,3,0,0,1,.45,2C124.17,70.71,122.45,71.37,120.74,71.37ZM119,73.55A2,2,0,0,0,118,75.26c0,.88.85,1.77,2.87,1.77a4.35,4.35,0,0,0,.5,0c1.15-.09,1.93-.74,1.93-1.42,0-.45-.36-.92-1.19-1.24a11.71,11.71,0,0,0-2.25-.62A6.94,6.94,0,0,1,119,73.55Zm1.82-6.88a6.54,6.54,0,0,0-2,.36,1.58,1.58,0,0,0-.74,1.39,1.45,1.45,0,0,0,.7,1.39,5.42,5.42,0,0,0,1.93.34c1.11,0,2.28-.4,2.35-1.64C123.2,67.12,122.05,66.67,120.86,66.67Z"/><path class="cls-1" d="M128.29,61.88v2h-1.22v-2Zm0,3.52v9.2h-1.22V65.4Z"/><path class="cls-1" d="M136.82,74.61a9.06,9.06,0,0,1-2.28.29,4.31,4.31,0,0,1-2.72-.79c-.79-.67-1.28-2.39-1.28-4.07A5.66,5.66,0,0,1,132,65.85a4.22,4.22,0,0,1,2.43-.71,10.87,10.87,0,0,1,2.41.33l-.27,1.19a9.38,9.38,0,0,0-2.14-.29,2.64,2.64,0,0,0-1.66.45c-.68.52-1,1.85-1,3.22s.31,2.72.81,3.13a3.13,3.13,0,0,0,2,.51,9.09,9.09,0,0,0,2-.25Z"/><path class="cls-1" d="M151.1,63.11h-3.83c-1.17,0-2,.84-2,2.36v2.09h6v1.22h-6V71.5a1.8,1.8,0,0,0,1.84,2H151v1.23h-3.87c-1.71,0-3-1.06-3.06-3.23v-6c-.06-2.31,1.24-3.61,3.17-3.61h3.83Z"/><path class="cls-1" d="M158,74.58V68.22c0-1.35-.5-1.76-1.13-1.76a6.21,6.21,0,0,0-2.5.83v7.29h-1.23V65.34h1.23v.58a6.24,6.24,0,0,1,2.5-.69,2.12,2.12,0,0,1,1.82.83,7.58,7.58,0,0,1,3-.84c1.35,0,2.46.66,2.46,3v6.36H163V68.22c0-1.37-.56-1.78-1.24-1.78a6.49,6.49,0,0,0-2.54.76,6.24,6.24,0,0,1,.09,1v6.36Z"/><path class="cls-1" d="M173.15,74.56l-.39.07a17.61,17.61,0,0,1-2.65.31c-2.25,0-4.32-.88-4.23-4.92,0-1.69.52-3.38,1.55-4.19a4.61,4.61,0,0,1,2.39-.67,3.56,3.56,0,0,1,2.49.85c.81.81,1.24,2.46,1.17,4.55H167.1c.11,2.56,1.52,3.15,3,3.15a13.89,13.89,0,0,0,2.43-.27c.2,0,.36-.09.45-.1Zm-6-5.24h5.15a3.36,3.36,0,0,0-.85-2.45v0a2.35,2.35,0,0,0-1.62-.5,3.1,3.1,0,0,0-1.71.45A3.47,3.47,0,0,0,167.14,69.32Z"/><path class="cls-1" d="M175.58,74.63V65.4h1.23v.72a6,6,0,0,1,2.93-.87l0,1.23a4.74,4.74,0,0,0-3,1.15v7Z"/><path class="cls-1" d="M184.74,71.37a6.69,6.69,0,0,1-2.06-.32c-.29.14-.48.34-.48.54s.56.68,1.85,1a16.84,16.84,0,0,1,2.49.67,2.69,2.69,0,0,1,1.94,2.38,3,3,0,0,1-3.08,2.64h0a5.72,5.72,0,0,1-.59,0c-2.89,0-4.09-1.48-4.09-3a3.21,3.21,0,0,1,1-2.3,1.71,1.71,0,0,1-.81-1.37,1.77,1.77,0,0,1,.6-1.23,2.93,2.93,0,0,1-.69-1.94,2.6,2.6,0,0,1,1.5-2.5,6.59,6.59,0,0,1,2.1-.45v0l4.14,0v1.23h-.75a3,3,0,0,1,.45,2C188.17,70.71,186.45,71.37,184.74,71.37ZM183,73.55A2,2,0,0,0,182,75.26c0,.88.85,1.77,2.87,1.77a4.35,4.35,0,0,0,.5,0c1.15-.09,1.93-.74,1.93-1.42,0-.45-.36-.92-1.19-1.24a11.71,11.71,0,0,0-2.25-.62A6.94,6.94,0,0,1,183,73.55Zm1.82-6.88a6.54,6.54,0,0,0-2,.36,1.58,1.58,0,0,0-.74,1.39,1.45,1.45,0,0,0,.7,1.39,5.42,5.42,0,0,0,1.93.34c1.11,0,2.28-.4,2.35-1.64C187.2,67.12,186.05,66.67,184.86,66.67Z"/><path class="cls-1" d="M197.15,74.56l-.39.07a17.61,17.61,0,0,1-2.65.31c-2.25,0-4.32-.88-4.23-4.92,0-1.69.52-3.38,1.55-4.19a4.61,4.61,0,0,1,2.39-.67,3.56,3.56,0,0,1,2.49.85c.81.81,1.24,2.46,1.17,4.55H191.1c.11,2.56,1.52,3.15,3,3.15a13.89,13.89,0,0,0,2.43-.27c.2,0,.36-.09.45-.1Zm-6-5.24h5.15a3.36,3.36,0,0,0-.85-2.45v0a2.35,2.35,0,0,0-1.62-.5,3.1,3.1,0,0,0-1.71.45A3.47,3.47,0,0,0,191.14,69.32Z"/><path class="cls-1" d="M207.61,62V74.63h-1.22V62Z"/><path class="cls-1" d="M210.9,65.34V66a9.05,9.05,0,0,1,3.15-.76c1.48,0,2.7.65,2.7,3v6.36h-1.22V68.22c0-1.37-.67-1.76-1.48-1.76a9.23,9.23,0,0,0-3.13.86l0,0v7.24h-1.22V65.34Z"/><path class="cls-1" d="M218.42,65.23h2V63.4h1.22v1.83h2.24v1.23h-2.24v6.08c0,1.23.62,1.46,1.37,1.46l.83,0,.13,1.22c-.29,0-.62,0-1,0-1.44,0-2.63-.44-2.59-2.69V66.46h-2Z"/><path class="cls-1" d="M232.69,74.56l-.4.07a17.48,17.48,0,0,1-2.64.31c-2.26,0-4.33-.88-4.24-4.92,0-1.69.53-3.38,1.55-4.19a4.62,4.62,0,0,1,2.4-.67,3.55,3.55,0,0,1,2.48.85c.81.81,1.24,2.46,1.17,4.55h-6.37c.11,2.56,1.51,3.15,3,3.15a14,14,0,0,0,2.43-.27c.19,0,.36-.09.45-.1Zm-6-5.24h5.15a3.35,3.35,0,0,0-.84-2.45v0a2.36,2.36,0,0,0-1.62-.5,3.06,3.06,0,0,0-1.71.45A3.43,3.43,0,0,0,226.67,69.32Z"/><path class="cls-1" d="M235.83,61.92V74.56H234.6V61.92Z"/><path class="cls-1" d="M239.83,61.92V74.56H238.6V61.92Z"/><path class="cls-1" d="M243.83,61.88v2H242.6v-2Zm0,3.52v9.2H242.6V65.4Z"/><path class="cls-1" d="M250.27,71.37a6.63,6.63,0,0,1-2.05-.32c-.29.14-.49.34-.49.54s.56.68,1.85,1a16.17,16.17,0,0,1,2.49.67A2.69,2.69,0,0,1,254,75.59a3,3,0,0,1-3.07,2.64h0a5.62,5.62,0,0,1-.59,0c-2.88,0-4.09-1.48-4.09-3a3.19,3.19,0,0,1,1-2.3,1.69,1.69,0,0,1-.81-1.37,1.75,1.75,0,0,1,.59-1.23,2.92,2.92,0,0,1-.68-1.94,2.59,2.59,0,0,1,1.49-2.5,6.59,6.59,0,0,1,2.11-.45v0l4.14,0v1.23h-.76a2.94,2.94,0,0,1,.45,2C253.71,70.71,252,71.37,250.27,71.37Zm-1.69,2.18a2,2,0,0,0-1.08,1.71c0,.88.84,1.77,2.86,1.77a4.35,4.35,0,0,0,.5,0c1.16-.09,1.93-.74,1.93-1.42,0-.45-.36-.92-1.19-1.24a11.71,11.71,0,0,0-2.25-.62A6.28,6.28,0,0,1,248.58,73.55Zm1.82-6.88a6.61,6.61,0,0,0-2,.36,1.6,1.6,0,0,0-.74,1.39,1.47,1.47,0,0,0,.7,1.39,5.51,5.51,0,0,0,1.93.34c1.12,0,2.29-.4,2.36-1.64C252.74,67.12,251.58,66.67,250.4,66.67Z"/><path class="cls-1" d="M262.69,74.56l-.4.07a17.48,17.48,0,0,1-2.64.31c-2.26,0-4.33-.88-4.24-4.92,0-1.69.53-3.38,1.55-4.19a4.62,4.62,0,0,1,2.4-.67,3.55,3.55,0,0,1,2.48.85c.81.81,1.24,2.46,1.17,4.55h-6.37c.11,2.56,1.51,3.15,3,3.15a14,14,0,0,0,2.43-.27c.19,0,.36-.09.45-.1Zm-6-5.24h5.15a3.35,3.35,0,0,0-.84-2.45v0a2.36,2.36,0,0,0-1.62-.5,3.06,3.06,0,0,0-1.71.45A3.43,3.43,0,0,0,256.67,69.32Z"/><path class="cls-1" d="M265.9,65.34V66a9.05,9.05,0,0,1,3.15-.76c1.48,0,2.7.65,2.7,3v6.36h-1.22V68.22c0-1.37-.67-1.76-1.48-1.76a9.23,9.23,0,0,0-3.13.86l0,0v7.24h-1.22V65.34Z"/><path class="cls-1" d="M279.36,74.61a9.2,9.2,0,0,1-2.29.29,4.31,4.31,0,0,1-2.72-.79c-.79-.67-1.28-2.39-1.28-4.07a5.66,5.66,0,0,1,1.44-4.19,4.27,4.27,0,0,1,2.43-.71,11.05,11.05,0,0,1,2.42.33l-.27,1.19a9.55,9.55,0,0,0-2.15-.29,2.59,2.59,0,0,0-1.65.45c-.69.52-1,1.85-1,3.22s.3,2.72.81,3.13a3.12,3.12,0,0,0,2,.51,9,9,0,0,0,2-.25Z"/><path class="cls-1" d="M287.69,74.56l-.4.07a17.48,17.48,0,0,1-2.64.31c-2.26,0-4.33-.88-4.24-4.92,0-1.69.53-3.38,1.55-4.19a4.62,4.62,0,0,1,2.4-.67,3.55,3.55,0,0,1,2.48.85c.81.81,1.24,2.46,1.17,4.55h-6.37c.11,2.56,1.51,3.15,3,3.15a14,14,0,0,0,2.43-.27c.19,0,.36-.09.45-.1Zm-6-5.24h5.15a3.35,3.35,0,0,0-.84-2.45v0a2.36,2.36,0,0,0-1.62-.5,3.06,3.06,0,0,0-1.71.45A3.43,3.43,0,0,0,281.67,69.32Z"/></svg>